<svg width="121" height="120" viewBox="0 0 121 120" fill="none" xmlns="http://www.w3.org/2000/svg">
<g clip-path="url(#clip0_0_15987)">
<path d="M92.857 0H28.143C12.8762 0 0.5 12.3762 0.5 27.643V92.357C0.5 107.624 12.8762 120 28.143 120H92.857C108.124 120 120.5 107.624 120.5 92.357V27.643C120.5 12.3762 108.124 0 92.857 0Z" fill="black"/>
<path d="M95.2942 60.0001C95.2942 79.0696 79.6959 94.5951 60.5001 94.5951C41.3044 94.5951 25.7061 79.0696 25.7061 60.0001C25.7061 40.9306 41.3044 25.405 60.5001 25.405H91.3473C91.3473 31.2065 86.6479 35.9059 80.8464 35.9107L60.5001 35.9253C47.1398 35.9253 36.2846 46.7174 36.2846 60.0001C36.2846 73.2827 47.135 84.0748 60.5001 84.0748C73.8653 84.0748 84.7157 73.2681 84.7157 60.0001C84.7157 58.2426 84.5215 56.5289 84.1574 54.8734H60.5001C57.6601 54.8734 55.3444 57.1746 55.3444 60.0001C55.3444 62.8255 57.6552 65.1267 60.5001 65.1267H75.3606C73.2293 71.2437 67.3793 75.647 60.5001 75.647C51.8247 75.647 44.7659 68.627 44.7659 60.0001C44.7659 51.3731 51.8247 44.358 60.5001 44.358H91.5172C93.9349 49.0623 95.2942 54.3685 95.2942 60.0001Z" fill="#01FF6A"/>
</g>
<defs>
<clipPath id="clip0_0_15987">
<rect width="120" height="120" fill="white" transform="translate(0.5)"/>
</clipPath>
</defs>
</svg>
