<?xml version="1.0" encoding="UTF-8"?>
<svg id="Layer_2" data-name="Layer 2" xmlns="http://www.w3.org/2000/svg" viewBox="0 0 1851.95 590.63">
  <g id="Layer_1-2" data-name="Layer 1">
    <g>
      <path d="M471.13,295.31c0,129.86-105.6,235.56-235.56,235.56S0,425.18,0,295.31,105.6,59.75,235.56,59.75h208.83v71.49l-208.83.15c-90.46,0-163.93,73.47-163.93,163.93s73.47,163.93,163.93,163.93,163.93-73.57,163.93-163.93c0-11.97-1.33-23.64-3.78-34.89h-160.15c-19.24,0-34.89,15.66-34.89,34.89s15.66,34.89,34.89,34.89h100.59c-14.43,41.65-54.03,71.63-100.59,71.63-58.74,0-106.53-47.79-106.53-106.53s47.79-106.52,106.53-106.52h209.98c16.37,32.03,25.58,68.15,25.58,106.52Z"/>
      <g>
        <path d="M783.37,134.23c17.62,9.19,31.49,21.09,41.62,35.71v-44.43h79.3v313.82c0,28.87-5.82,54.64-17.43,77.33-11.63,22.68-29.06,40.68-52.3,53.99-23.25,13.3-51.37,19.97-84.36,19.97-44.25,0-80.52-10.32-108.83-30.93-28.31-20.62-44.34-48.74-48.09-84.36h78.17c4.12,14.24,13.02,25.59,26.71,34.03,13.68,8.44,30.27,12.65,49.77,12.65,22.87,0,41.42-6.85,55.68-20.53,14.24-13.69,21.37-34.4,21.37-62.15v-48.37c-10.12,14.62-24.1,26.81-41.9,36.56-17.81,9.75-38.16,14.62-61.02,14.62-26.25,0-50.25-6.75-71.99-20.25-21.75-13.5-38.9-32.52-51.46-57.08-12.57-24.55-18.84-52.77-18.84-84.64s6.27-59.42,18.84-83.8c12.56-24.37,29.61-43.11,51.18-56.24,21.56-13.12,45.64-19.68,72.27-19.68,23.24,0,43.67,4.6,61.3,13.78ZM813.74,232.09c-7.5-13.68-17.63-24.18-30.37-31.49-12.75-7.31-26.43-10.97-41.06-10.97s-28.12,3.57-40.49,10.69c-12.37,7.13-22.41,17.53-30.09,31.21-7.69,13.69-11.53,29.9-11.53,48.65s3.84,35.15,11.53,49.21c7.68,14.06,17.8,24.84,30.37,32.34,12.56,7.5,25.96,11.25,40.21,11.25s28.3-3.66,41.06-10.97c12.74-7.31,22.87-17.8,30.37-31.5,7.5-13.68,11.25-30.09,11.25-49.21s-3.75-35.52-11.25-49.21Z"/>
        <path d="M1038.71,422.19c-24-13.3-42.84-32.15-56.52-56.52-13.69-24.37-20.53-52.49-20.53-84.36s7.03-59.98,21.09-84.36c14.06-24.37,33.27-43.21,57.65-56.52,24.37-13.3,51.55-19.97,81.55-19.97s57.17,6.66,81.55,19.97c24.37,13.31,43.59,32.15,57.65,56.52,14.06,24.38,21.09,52.5,21.09,84.36s-7.22,59.99-21.65,84.36c-14.44,24.38-33.94,43.22-58.49,56.52-24.56,13.31-52.02,19.97-82.39,19.97s-57-6.65-80.99-19.97ZM1159.91,363.13c12.56-6.93,22.58-17.34,30.09-31.21,7.5-13.87,11.25-30.74,11.25-50.62,0-29.61-7.79-52.39-23.34-68.33-15.56-15.93-34.59-23.9-57.08-23.9s-41.34,7.97-56.52,23.9c-15.18,15.94-22.78,38.72-22.78,68.33s7.4,52.4,22.22,68.33c14.81,15.94,33.46,23.9,55.96,23.9,14.24,0,27.65-3.46,40.21-10.4Z"/>
        <path d="M1483.01,190.19h-54.55v246.9h-79.86v-246.9h-35.43v-64.68h35.43v-15.75c0-38.24,10.87-66.36,32.62-84.36,21.74-18,54.55-26.43,98.42-25.31v66.36c-19.12-.37-32.44,2.81-39.93,9.56-7.5,6.75-11.25,18.94-11.25,36.56v12.94h54.55v64.68Z"/>
        <g>
          <g>
            <path d="M1599.93,114.29c3.13-1.84,6.06-4.05,8.77-6.65,9.18-8.81,13.78-19.77,13.78-32.9s-4.6-24.09-13.78-32.9c-9.19-8.8-20.72-13.22-34.59-13.22s-25.41,4.41-34.59,13.22c-9.19,8.81-13.78,19.78-13.78,32.9s4.59,24.1,13.78,32.9c2.47,2.37,5.11,4.41,7.91,6.14,7.44-4.37,16.05-6.57,25.82-6.57s19.03,2.37,26.67,7.08Z"/>
            <path d="M1599.93,114.29c-7.64-4.71-16.53-7.08-26.67-7.08s-18.37,2.2-25.82,6.57c7.64,4.71,16.53,7.08,26.67,7.08s18.37-2.19,25.81-6.56Z"/>
          </g>
          <path d="M1573.27,166.99c-13.88,0-25.41-4.4-34.59-13.22-1.65-1.58-3.14-3.23-4.49-4.94v288.26h78.74V148.06c-1.5,1.99-3.18,3.9-5.07,5.71-9.19,8.81-20.72,13.22-34.59,13.22Z"/>
        </g>
        <path d="M1782.21,190.19v150.73c0,10.5,2.53,18.09,7.59,22.78,5.06,4.69,13.59,7.03,25.59,7.03h36.56v66.36h-49.49c-66.36,0-99.55-32.24-99.55-96.73v-150.16h-37.12v-64.68h37.12V48.47h79.3v77.05h69.74v64.68h-69.74Z"/>
      </g>
    </g>
  </g>
</svg>